<svg id="Capa_1" enable-background="new 0 0 429.091 429.091" height="512" viewBox="0 0 429.091 429.091" width="512" xmlns="http://www.w3.org/2000/svg"><g><path d="m429.091 429.059h-429.091v-429.027h30.642v398.384h398.449z" fill="#62667c"/><path d="m91.257 132.45-22.753 22.752 109.982 109.987 70.397-70.398 93.36 93.354 22.752-22.752-116.112-116.112-70.397 70.397z" fill="#f6c863"/><path d="m401.109 320.177-12.245-83.158c-.07-.469-.506-.792-.975-.723-.181.027-.349.111-.478.24l-70.913 70.918c-.334.336-.332.88.004 1.214.13.129.298.213.479.24l83.136 12.24c.464.083.907-.226.989-.69.016-.093.017-.188.003-.281z" fill="#f6c863"/><path d="m329.979 263.071h32.166v12.261h-32.166z" fill="#eab54e" transform="matrix(.707 -.707 .707 .707 -88.995 323.55)"/></g>
</svg>