<svg id="Capa_1" enable-background="new 0 0 434.464 434.464" height="512" viewBox="0 0 434.464 434.464" width="512" xmlns="http://www.w3.org/2000/svg"><g><path d="m418.852 426.628h-418.852v-418.793h29.913v388.88h388.939z" fill="#62667c"/><path d="m90.291 321.297-22.205-22.205 127.596-127.601 68.718 68.713 112.583-112.583 22.211 22.211-134.794 134.799-68.718-68.719z" fill="#f6c863"/><path d="m434.455 96.357-11.961 81.184c-.068.457-.493.773-.951.705-.176-.026-.339-.108-.465-.233l-69.223-69.239c-.325-.325-.325-.851-.001-1.176.126-.127.29-.209.467-.235l81.179-11.956c.457-.07.884.243.954.7.013.083.013.167.001.25z" fill="#f6c863"/><path d="m374.725 130.415h11.966v31.399h-11.966z" fill="#eab54e" transform="matrix(.707 -.707 .707 .707 8.188 311.997)"/></g>
</svg>